<?xml version="1.0" encoding="UTF-8"?>
<svg id="katman_1" data-name="katman 1" xmlns="http://www.w3.org/2000/svg" viewBox="0 0 400 400">
  <g>
    <path d="M91.75,263.81c8.46-5.25,16.78-12.06,25.28-18.14l6.94-16.69,58.25-139.33,42.54,102.24c15.26-5.53,30.87-10.42,46.46-14.42L200.78,17.19h-10.22l-106.2,250.17c2.43-.92,4.89-1.99,7.4-3.55Z"/>
    <path d="M328.71,328.16l-52.95-120.48c-15.43,4.87-30.72,10.6-45.6,17.06l10.9,26.19,8.66,20.81,20.56,49.39c3.01,6.99,5.35,13.64,7.02,19.96,1.67,6.32,2.51,10.73,2.51,13.22,0,7.49-2.17,12.19-6.52,14.1-4.34,1.91-14.02,3.53-29.02,4.87v9.53h130.57v-9.53c-12.03-1.66-20.6-4.77-25.7-9.35-5.1-4.57-11.91-16.49-20.43-35.77Z"/>
    <path d="M86.63,350.83c0-4.32,1.29-10.18,3.89-17.59.01-.03.03-.08.04-.11-2.29,1.02-4.9,1.72-7.95,1.98-6.97.6-12.83-1.76-16.96-5.73-6.88,14.48-12.23,24.16-16.01,29.01-6.61,8.45-16.51,13.41-29.71,14.9v9.53h101.74v-9.53c-12.01-.99-20.18-2.49-24.52-4.49-7.01-3.33-10.52-9.32-10.52-17.97Z"/>
  </g>
  <path d="M380.07,177.76c-12.29,1.81-24.74,2.34-37.05,4.06-61.32,8.57-127.29,33.93-179.02,68.08-15.47,10.21-35.34,24.19-47.88,37.68-11.54,12.42-12.09,35.3-33.5,37.13-19.85,1.7-30.7-20.5-18.39-35.87,8.58-10.71,17.74-9.46,27.53-15.53,10.51-6.52,20.8-15.47,31.49-22.41,64.87-42.1,174.22-83.15,252.27-74.18.78.09,4.52.39,4.56,1.03Z"/>
</svg>