<?xml version="1.0" encoding="UTF-8"?>
<svg id="katman_1" data-name="katman 1" xmlns="http://www.w3.org/2000/svg" viewBox="0 0 515.16 220.03">
  <g>
    <g>
      <path d="M165.1,160.36c2.57.73,4.02,1.09,4.32,1.09.64,0,1.24-.18,1.82-.53.57-.35.97-.9,1.19-1.65h1.42l.63,15.19h-1.55c-.9-3.02-2.08-5.45-3.53-7.3-2.77-3.48-6.5-5.22-11.19-5.22s-8.6,1.87-11.6,5.61c-3,3.74-4.51,8.89-4.51,15.45,0,6.03,1.58,10.84,4.74,14.44,3.16,3.6,7.16,5.4,12,5.4,3.5,0,6.72-.84,9.67-2.51,1.7-.95,3.55-2.38,5.58-4.29l1.25,1.25c-1.5,1.89-3.36,3.55-5.58,4.99-3.79,2.42-7.89,3.63-12.31,3.63-7.26,0-13.03-2.32-17.3-6.97-3.94-4.29-5.91-9.65-5.91-16.08s2.08-12.1,6.24-16.57c4.38-4.69,10.08-7.03,17.1-7.03,2.44,0,4.95.36,7.53,1.09Z"/>
      <path d="M183.47,203.54c2.49-.26,4.1-.71,4.84-1.33.74-.62,1.11-2.21,1.11-4.74v-30.07c0-2.4-.36-3.97-1.09-4.7s-2.34-1.19-4.85-1.37v-1.25h19.08v1.25c-2.49.13-4.15.54-5,1.22-.85.68-1.27,2.15-1.27,4.39v32.48c0,.75.13,1.34.38,1.77s.81.7,1.67.81c.51.07,1.04.11,1.6.13.56.02,1.61.03,3.16.03,6.02,0,10.08-.5,12.2-1.49s4.16-3.52,6.15-7.59h1.72l-3.31,11.72h-36.38v-1.25Z"/>
      <path d="M230.17,203.54c2.75-.2,4.53-.61,5.35-1.23.81-.62,1.22-2.24,1.22-4.84v-30.07c0-2.49-.41-4.09-1.22-4.8s-2.6-1.14-5.35-1.27v-1.25h20.01v1.25c-2.75.13-4.53.56-5.35,1.27-.81.72-1.22,2.32-1.22,4.8v30.07c0,2.6.41,4.22,1.22,4.84.81.62,2.6,1.03,5.35,1.23v1.25h-20.01v-1.25Z"/>
      <path d="M257.43,203.54c2.79-.29,4.59-.92,5.38-1.9.79-.98,1.19-3.25,1.19-6.81v-29.79l-.92-1.09c-.99-1.17-1.83-1.89-2.53-2.16-.69-.27-1.73-.43-3.12-.48v-1.25h11.54l26.1,32.35v-22.47c0-3.69-.55-6.1-1.65-7.22-.73-.72-2.33-1.19-4.82-1.41v-1.25h15.88v1.25c-2.58.26-4.29.89-5.15,1.88-.86.99-1.29,3.26-1.29,6.8v35.59h-1.16l-29.91-37.07v26.32c0,3.69.54,6.1,1.62,7.22.7.73,2.28,1.22,4.72,1.48v1.25h-15.88v-1.25Z"/>
      <path d="M311.65,203.54c2.75-.2,4.53-.61,5.35-1.23.81-.62,1.22-2.24,1.22-4.84v-30.07c0-2.49-.41-4.09-1.22-4.8s-2.6-1.14-5.35-1.27v-1.25h20.01v1.25c-2.75.13-4.53.56-5.35,1.27-.81.72-1.22,2.32-1.22,4.8v30.07c0,2.6.41,4.22,1.22,4.84.81.62,2.6,1.03,5.35,1.23v1.25h-20.01v-1.25Z"/>
      <path d="M370.7,160.36c2.57.73,4.02,1.09,4.32,1.09.64,0,1.24-.18,1.82-.53.57-.35.97-.9,1.19-1.65h1.42l.63,15.19h-1.55c-.9-3.02-2.08-5.45-3.53-7.3-2.77-3.48-6.5-5.22-11.19-5.22s-8.6,1.87-11.6,5.61c-3,3.74-4.51,8.89-4.51,15.45,0,6.03,1.58,10.84,4.74,14.44,3.16,3.6,7.16,5.4,12,5.4,3.5,0,6.72-.84,9.67-2.51,1.7-.95,3.55-2.38,5.58-4.29l1.25,1.25c-1.5,1.89-3.36,3.55-5.58,4.99-3.79,2.42-7.89,3.63-12.31,3.63-7.26,0-13.03-2.32-17.3-6.97-3.94-4.29-5.91-9.65-5.91-16.08s2.08-12.1,6.24-16.57c4.38-4.69,10.08-7.03,17.1-7.03,2.44,0,4.95.36,7.53,1.09Z"/>
    </g>
    <rect x="15.29" y="178.8" width="94.39" height="7.58" rx="3.79" ry="3.79"/>
    <rect x="405.48" y="178.8" width="94.39" height="7.58" rx="3.79" ry="3.79"/>
  </g>
  <g>
    <path d="M184.54,19.45v3.12c-6.45.44-10.63,1.52-12.55,3.24-1.91,1.72-2.87,5.67-2.87,11.85v53.71c0,8.8,1.2,15.66,3.61,20.58,4.48,8.97,12.98,13.45,25.5,13.45,13.72,0,22.93-4.59,27.63-13.78,2.62-5.14,3.94-13.07,3.94-23.78v-43.71c0-9.13-1.09-14.85-3.28-17.18-2.19-2.32-6.34-3.79-12.46-4.39v-3.12h38.87v3.12c-6.51.71-10.76,2.28-12.75,4.72-2,2.43-2.99,8.05-2.99,16.85v43.71c0,11.59-1.78,20.64-5.33,27.14-6.56,11.97-19.02,17.96-37.39,17.96s-30.5-5.9-37.06-17.71c-3.55-6.34-5.33-14.7-5.33-25.09v-52.48c0-6.12-.94-10.05-2.83-11.77-1.89-1.72-6-2.83-12.34-3.32v-3.12h47.64Z"/>
    <path d="M270.75,127.45c6.45-.6,10.47-1.85,12.05-3.75,1.58-1.9,2.38-6.34,2.38-13.3V37.66c0-5.9-.89-9.77-2.67-11.6-1.78-1.83-5.7-2.99-11.77-3.49v-3.12h46.5c9.68,0,17.74,1.23,24.19,3.68,12.25,4.64,18.37,13.18,18.37,25.63,0,8.35-2.72,14.77-8.16,19.24-5.44,4.48-12.83,7.42-22.18,8.84l34.6,42.62c2.13,2.6,4.26,4.5,6.4,5.7,2.13,1.19,4.86,1.95,8.2,2.28v3.12h-27.05l-42.01-51.74-7.37.41v33.1c0,6.21.94,10.15,2.83,11.81,1.89,1.66,6,2.76,12.34,3.31v3.12h-46.66v-3.12ZM328.15,69.23c8.91-3.66,13.37-10.53,13.37-20.63s-3.99-16.34-11.97-19.89c-4.26-1.91-9.92-2.87-16.97-2.87-4.76,0-7.67.34-8.73,1.02-1.07.68-1.6,2.28-1.6,4.79v41.34c12.08-.44,20.72-1.69,25.91-3.77Z"/>
    <g>
      <g>
        <path d="M37.3,92.62c2.69-1.67,5.34-3.84,8.05-5.77l2.21-5.31,18.54-44.35,13.54,32.54c4.86-1.76,9.82-3.32,14.79-4.59l-22.42-51.02h-3.25l-33.8,79.63c.77-.29,1.56-.63,2.35-1.13Z"/>
        <path d="M112.73,113.1l-16.85-38.35c-4.91,1.55-9.78,3.37-14.51,5.43l3.47,8.34,2.76,6.62,6.54,15.72c.96,2.22,1.7,4.34,2.23,6.35.53,2.01.8,3.41.8,4.21,0,2.38-.69,3.88-2.07,4.49-1.38.61-4.46,1.13-9.24,1.55v3.03h41.56v-3.03c-3.83-.53-6.56-1.52-8.18-2.97-1.62-1.45-3.79-5.25-6.5-11.39Z"/>
        <path d="M35.67,120.32c0-1.38.41-3.24,1.24-5.6,0-.01,0-.03.01-.04-.73.32-1.56.55-2.53.63-2.22.19-4.08-.56-5.4-1.82-2.19,4.61-3.89,7.69-5.1,9.23-2.1,2.69-5.25,4.27-9.46,4.74v3.03h32.38v-3.03c-3.82-.32-6.42-.79-7.8-1.43-2.23-1.06-3.35-2.97-3.35-5.72Z"/>
      </g>
      <path d="M129.08,65.23c-3.91.58-7.88.74-11.79,1.29-19.52,2.73-40.52,10.8-56.98,21.67-4.92,3.25-11.25,7.7-15.24,11.99-3.67,3.95-3.85,11.24-10.66,11.82-6.32.54-9.77-6.53-5.85-11.42,2.73-3.41,5.65-3.01,8.76-4.94,3.34-2.08,6.62-4.92,10.02-7.13,20.65-13.4,55.46-26.47,80.3-23.61.25.03,1.44.12,1.45.33Z"/>
    </g>
    <g>
      <g>
        <path d="M408.94,92.62c2.69-1.67,5.34-3.84,8.05-5.77l2.21-5.31,18.54-44.35,13.54,32.54c4.86-1.76,9.82-3.32,14.79-4.59l-22.42-51.02h-3.25l-33.8,79.63c.77-.29,1.56-.63,2.35-1.13Z"/>
        <path d="M484.37,113.1l-16.85-38.35c-4.91,1.55-9.78,3.37-14.51,5.43l3.47,8.34,2.76,6.62,6.54,15.72c.96,2.22,1.7,4.34,2.23,6.35.53,2.01.8,3.41.8,4.21,0,2.38-.69,3.88-2.07,4.49-1.38.61-4.46,1.13-9.24,1.55v3.03h41.56v-3.03c-3.83-.53-6.56-1.52-8.18-2.97-1.62-1.45-3.79-5.25-6.5-11.39Z"/>
        <path d="M407.32,120.32c0-1.38.41-3.24,1.24-5.6,0-.01,0-.03.01-.04-.73.32-1.56.55-2.53.63-2.22.19-4.08-.56-5.4-1.82-2.19,4.61-3.89,7.69-5.1,9.23-2.1,2.69-5.25,4.27-9.46,4.74v3.03h32.38v-3.03c-3.82-.32-6.42-.79-7.8-1.43-2.23-1.06-3.35-2.97-3.35-5.72Z"/>
      </g>
      <path d="M500.72,65.23c-3.91.58-7.88.74-11.79,1.29-19.52,2.73-40.52,10.8-56.98,21.67-4.92,3.25-11.25,7.7-15.24,11.99-3.67,3.95-3.85,11.24-10.66,11.82-6.32.54-9.77-6.53-5.85-11.42,2.73-3.41,5.65-3.01,8.76-4.94,3.34-2.08,6.62-4.92,10.02-7.13,20.65-13.4,55.46-26.47,80.3-23.61.25.03,1.44.12,1.45.33Z"/>
    </g>
  </g>
</svg>